<svg width="183" height="55" fill="none" xmlns="http://www.w3.org/2000/svg"><g filter="url(#filter0_ddf_228_446)"><rect x="18" y="32.809" width="141" height="2" rx="1" fill="#fff"/><rect x="17.5" y="32.309" width="142" height="3" rx="1.5" stroke="#FF39BC"/></g><g filter="url(#filter1_df_228_446)"><rect x="155.068" y="24" width="14.046" height="2" rx="1" transform="rotate(45 155.068 24)" fill="#fff"/><rect x="155.068" y="23.293" width="15.046" height="3" rx="1.5" transform="rotate(45 155.068 23.293)" stroke="#FF39BC"/></g><g filter="url(#filter2_df_228_446)"><rect x="153.654" y="41.932" width="14.046" height="2" rx="1" transform="rotate(-45 153.654 41.932)" fill="#fff"/><rect x="152.947" y="41.932" width="15.046" height="3" rx="1.5" transform="rotate(-45 152.947 41.932)" stroke="#FF39BC"/></g><rect x="153.654" y="42.395" width="13.593" height="2" rx="1" transform="rotate(-45 153.654 42.395)" fill="#F9D9EE"/><rect x="155.068" y="24" width="14.046" height="2" rx="1" transform="rotate(45 155.068 24)" fill="#F9D9EE"/><path d="M18 33.809a1 1 0 011-1h139a1 1 0 010 2H19a1 1 0 01-1-1z" fill="#FCCFEC"/><defs><filter id="filter0_ddf_228_446" x="0" y="8.809" width="177" height="38" filterUnits="userSpaceOnUse" color-interpolation-filters="sRGB"><feFlood flood-opacity="0" result="BackgroundImageFix"/><feColorMatrix in="SourceAlpha" values="0 0 0 0 0 0 0 0 0 0 0 0 0 0 0 0 0 0 127 0" result="hardAlpha"/><feOffset dy="-6"/><feGaussianBlur stdDeviation="8.5"/><feComposite in2="hardAlpha" operator="out"/><feColorMatrix values="0 0 0 0 1 0 0 0 0 0.225 0 0 0 0 0.7365 0 0 0 1 0"/><feBlend in2="BackgroundImageFix" result="effect1_dropShadow_228_446"/><feColorMatrix in="SourceAlpha" values="0 0 0 0 0 0 0 0 0 0 0 0 0 0 0 0 0 0 127 0" result="hardAlpha"/><feOffset dx="-7" dy="5"/><feGaussianBlur stdDeviation="2"/><feComposite in2="hardAlpha" operator="out"/><feColorMatrix values="0 0 0 0 0 0 0 0 0 0 0 0 0 0 0 0 0 0 0.88 0"/><feBlend in2="effect1_dropShadow_228_446" result="effect2_dropShadow_228_446"/><feBlend in="SourceGraphic" in2="effect2_dropShadow_228_446" result="shape"/><feGaussianBlur stdDeviation=".5" result="effect3_foregroundBlur_228_446"/></filter><filter id="filter1_df_228_446" x="136.068" y=".414" width="46.518" height="46.518" filterUnits="userSpaceOnUse" color-interpolation-filters="sRGB"><feFlood flood-opacity="0" result="BackgroundImageFix"/><feColorMatrix in="SourceAlpha" values="0 0 0 0 0 0 0 0 0 0 0 0 0 0 0 0 0 0 127 0" result="hardAlpha"/><feOffset dy="-6"/><feGaussianBlur stdDeviation="8.5"/><feComposite in2="hardAlpha" operator="out"/><feColorMatrix values="0 0 0 0 1 0 0 0 0 0.225 0 0 0 0 0.7365 0 0 0 1 0"/><feBlend in2="BackgroundImageFix" result="effect1_dropShadow_228_446"/><feBlend in="SourceGraphic" in2="effect1_dropShadow_228_446" result="shape"/><feGaussianBlur stdDeviation="1" result="effect2_foregroundBlur_228_446"/></filter><filter id="filter2_df_228_446" x="136.068" y="8.414" width="46.518" height="46.518" filterUnits="userSpaceOnUse" color-interpolation-filters="sRGB"><feFlood flood-opacity="0" result="BackgroundImageFix"/><feColorMatrix in="SourceAlpha" values="0 0 0 0 0 0 0 0 0 0 0 0 0 0 0 0 0 0 127 0" result="hardAlpha"/><feOffset dy="-6"/><feGaussianBlur stdDeviation="8.5"/><feComposite in2="hardAlpha" operator="out"/><feColorMatrix values="0 0 0 0 1 0 0 0 0 0.225 0 0 0 0 0.7365 0 0 0 1 0"/><feBlend in2="BackgroundImageFix" result="effect1_dropShadow_228_446"/><feBlend in="SourceGraphic" in2="effect1_dropShadow_228_446" result="shape"/><feGaussianBlur stdDeviation="1" result="effect2_foregroundBlur_228_446"/></filter></defs></svg>