<svg width="60" height="30" fill="none" xmlns="http://www.w3.org/2000/svg"><mask id="a" fill="#fff"><path fill-rule="evenodd" clip-rule="evenodd" d="M57.803 0a2.197 2.197 0 010 4.393h-35.73a4 4 0 00-3.7 2.48l-6.76 16.46c.328-.038.655-.118.976-.242l8.016-3.1a2.493 2.493 0 013.267 1.543 2.495 2.495 0 01-1.482 3.114l-11.97 4.554a3.998 3.998 0 01-5.053-2.063l-5.162-11.2a2.221 2.221 0 011.097-2.95 2.219 2.219 0 012.926 1.073l3.303 7.005c.049.104.101.205.158.302L15.446 2.48a4 4 0 013.7-2.48h38.657z"/></mask><path fill-rule="evenodd" clip-rule="evenodd" d="M57.803 0a2.197 2.197 0 010 4.393h-35.73a4 4 0 00-3.7 2.48l-6.76 16.46c.328-.038.655-.118.976-.242l8.016-3.1a2.493 2.493 0 013.267 1.543 2.495 2.495 0 01-1.482 3.114l-11.97 4.554a3.998 3.998 0 01-5.053-2.063l-5.162-11.2a2.221 2.221 0 011.097-2.95 2.219 2.219 0 012.926 1.073l3.303 7.005c.049.104.101.205.158.302L15.446 2.48a4 4 0 013.7-2.48h38.657z" fill="#fff"/><path d="M18.373 6.874l.925.38-.925-.38zm-6.76 16.46l.117.993-1.688.199.646-1.572.925.38zm.976-.243l.36.933-.36-.933zm8.016-3.1l-.36-.933.36.932zm3.267 1.543l-.95.313.95-.313zm-1.482 3.114l-.356-.935.356.935zm-11.97 4.554l.355.934-.356-.934zm-5.053-2.063l-.908.419.908-.42zm-5.162-11.2l.908-.418-.908.419zm1.097-2.95l-.414-.91.414.91zm2.926 1.073l-.905.426.905-.426zm3.303 7.005l.904-.426-.904.426zm.158.302l.925.38-.772 1.88-1.018-1.759.865-.5zM15.446 2.48l.925.38-.925-.38zM59 2.197C59 1.536 58.464 1 57.803 1v-2A3.197 3.197 0 0161 2.197h-2zm-1.197 1.196c.661 0 1.197-.535 1.197-1.196h2a3.197 3.197 0 01-3.197 3.196v-2zm-35.73 0h35.73v2h-35.73v-2zm-4.625 3.1a5 5 0 014.625-3.1v2a3 3 0 00-2.775 1.86l-1.85-.76zm-6.76 16.46l6.76-16.46 1.85.76-6.76 16.46-1.85-.76zm2.262 1.07c-.4.155-.81.255-1.22.304l-.234-1.986c.245-.03.49-.09.732-.183l.722 1.866zm8.016-3.1l-8.016 3.1-.722-1.865 8.017-3.1.721 1.865zm1.956.924a1.492 1.492 0 00-1.956-.924l-.721-1.865a3.492 3.492 0 014.576 2.162l-1.9.627zm-.888 1.866a1.495 1.495 0 00.888-1.866l1.9-.627a3.495 3.495 0 01-2.077 4.362l-.711-1.869zm-11.97 4.554l11.97-4.554.711 1.87-11.97 4.553-.711-1.869zM6.275 26.72a2.998 2.998 0 003.789 1.547l.711 1.87a4.998 4.998 0 01-6.316-2.58l1.816-.837zM1.113 15.521l5.162 11.2-1.816.837-5.163-11.2 1.817-.837zm.603-1.622a1.221 1.221 0 00-.603 1.622l-1.817.837a3.221 3.221 0 011.592-4.28l.828 1.82zm1.607.59c-.284-.604-1-.867-1.607-.59l-.828-1.82a3.219 3.219 0 014.244 1.556l-1.809.853zm3.303 7.005l-3.303-7.006 1.81-.853 3.302 7.006-1.809.853zm.198.377a5.056 5.056 0 01-.198-.377l1.81-.853c.036.078.076.154.118.227l-1.73 1.003zM16.37 2.86L8.614 21.748l-1.85-.76L14.52 2.101l1.85.76zM19.146 1a3 3 0 00-2.775 1.86l-1.85-.76A5 5 0 0119.146-1v2zm38.657 0H19.146v-2h38.657v2z" fill="#2AABFC" mask="url(#a)"/></svg>