<svg width="60" height="30" fill="none" xmlns="http://www.w3.org/2000/svg"><mask id="a" fill="#fff"><path fill-rule="evenodd" clip-rule="evenodd" d="M2.195 0a2.195 2.195 0 000 4.39h35.733a4 4 0 013.7 2.48l6.759 16.446a4.005 4.005 0 01-.976-.242l-8.017-3.099a2.492 2.492 0 10-1.784 4.654l11.97 4.551a4 4 0 005.054-2.063l5.161-11.188a2.22 2.22 0 00-4.023-1.877l-3.301 6.998c-.05.104-.103.206-.16.304L44.555 2.48a4 4 0 00-3.7-2.48H2.195z"/></mask><path fill-rule="evenodd" clip-rule="evenodd" d="M2.195 0a2.195 2.195 0 000 4.39h35.733a4 4 0 013.7 2.48l6.759 16.446a4.005 4.005 0 01-.976-.242l-8.017-3.099a2.492 2.492 0 10-1.784 4.654l11.97 4.551a4 4 0 005.054-2.063l5.161-11.188a2.22 2.22 0 00-4.023-1.877l-3.301 6.998c-.05.104-.103.206-.16.304L44.555 2.48a4 4 0 00-3.7-2.48H2.195z" fill="#fff"/><path d="M41.628 6.87l.925-.38-.925.38zm6.759 16.446l-.117.994 1.688.199-.646-1.573-.925.38zm-.976-.242l.36-.933-.36.933zm-8.017-3.099l.36-.933-.36.933zm-3.265 1.543l.95.314-.95-.314zm1.48 3.111l.356-.935-.355.935zm11.972 4.551l.355-.934-.355.934zm5.053-2.063l.908.419-.908-.419zm5.161-11.188l.908.419-.908-.419zm-1.097-2.95l.414-.91-.414.91zm-2.926 1.073l.905.427-.905-.427zm-3.301 6.998l.904.427-.904-.427zm-.16.304l-.925.38.771 1.877 1.019-1.755-.865-.502zM44.555 2.48l.925-.38-.925.38zM1 2.195C1 1.535 1.535 1 2.195 1v-2A3.195 3.195 0 00-1 2.195h2zM2.195 3.39C1.535 3.39 1 2.855 1 2.195h-2A3.195 3.195 0 002.195 5.39v-2zm35.733 0H2.195v2h35.733v-2zm4.625 3.1a5 5 0 00-4.625-3.1v2a3 3 0 012.775 1.86l1.85-.76zm6.759 16.446L42.552 6.49l-1.85.76 6.76 16.447 1.85-.76zm-2.262 1.07a5 5 0 001.22.303l.234-1.986a3.009 3.009 0 01-.733-.182l-.72 1.866zm-8.017-3.098l8.017 3.099.721-1.866-8.017-3.099-.72 1.866zm-1.955.924a1.492 1.492 0 011.955-.924l.721-1.866a3.492 3.492 0 00-4.575 2.162l1.9.628zm.887 1.862a1.492 1.492 0 01-.887-1.862l-1.899-.628a3.492 3.492 0 002.075 4.36l.71-1.87zm11.971 4.552l-11.971-4.552-.71 1.87 11.97 4.551.711-1.87zm3.79-1.548a3 3 0 01-3.79 1.548l-.71 1.87a5 5 0 006.316-2.58l-1.816-.838zm5.161-11.188l-5.16 11.188 1.815.838 5.161-11.188-1.816-.838zm-.602-1.621a1.22 1.22 0 01.602 1.621l1.816.838a3.22 3.22 0 00-1.59-4.28l-.828 1.821zm-1.608.59a1.22 1.22 0 011.608-.59l.827-1.82a3.22 3.22 0 00-4.244 1.556l1.809.854zm-3.302 6.998l3.302-6.998-1.81-.853-3.3 6.997 1.808.854zm-.199.379c.071-.123.138-.25.199-.38l-1.809-.853a3.022 3.022 0 01-.12.229l1.73 1.004zM43.63 2.86l7.756 18.874 1.85-.76L45.48 2.099l-1.85.76zM40.855 1a3 3 0 012.775 1.86l1.85-.76A5 5 0 0040.855-1v2zM2.195 1h38.66v-2H2.195v2z" fill="#FF6C2D" mask="url(#a)"/></svg>